<svg xmlns="http://www.w3.org/2000/svg" width="500" height="120" viewBox="0 0 500 120">
    <g fill="#FEDB00" fill-rule="evenodd">
        <path d="M23.068 68.098h26.11c1.904 0 3.245-.306 4.022-.924.773-.614 1.162-1.815 1.162-3.605 0-3.912-1.519-7.1-4.56-9.56-3.04-2.46-6.767-3.692-11.176-3.692-4.174 0-7.81 1.205-10.908 3.606-3.102 2.406-4.65 5.566-4.65 9.477v4.698zM0 83.183V67.917c0-9.815 3.814-18.256 11.445-25.321C19.073 35.532 28.313 32 39.163 32c10.13 0 18.804 3.217 26.018 9.653C72.392 48.088 76 56.175 76 65.917c0 3.56-.447 6.49-1.342 8.803-.894 2.313-2.266 3.942-4.113 4.892-1.849.948-3.548 1.543-5.096 1.778-1.55.24-3.577.358-6.08.358h-36.3v2.693c0 5.149 1.906 9.312 5.722 12.482 3.813 3.174 8.88 4.758 15.2 4.758 4.529 0 8.999-1.137 13.412-3.411 4.408-2.274 7.268-3.413 8.583-3.413 2.503 0 4.587 1.167 6.258 3.502 1.669 2.335 2.503 4.58 2.503 6.734 0 3.354-3.012 6.676-9.03 9.968-6.021 3.296-13.5 4.939-22.442 4.939-12.758 0-23.157-3.381-31.204-10.146C4.025 103.09 0 94.2 0 83.183zM92 112.499V40.414c0-2.194 1.055-3.961 3.168-5.305 2.11-1.341 4.917-2.012 8.418-2.012 2.898 0 5.342.677 7.334 2.032 1.991 1.356 2.987 3.142 2.987 5.358v5.54C119.094 36.676 127.06 32 137.805 32c5.07 0 9.623 1.692 13.669 5.075 4.042 3.386 7.03 7.845 8.961 13.382 3.016-6.029 6.971-10.61 11.86-13.75 4.888-3.14 10.047-4.707 15.479-4.707 8.69 0 16.23 3.355 22.631 10.062C216.801 48.77 220 57.795 220 69.137V112.5c0 1.829-1.176 3.538-3.531 5.121-2.352 1.586-5.1 2.38-8.237 2.38-3.02 0-5.703-.79-8.057-2.374-2.353-1.58-3.53-3.284-3.53-5.108V69.277c0-5.11-1.448-9.155-4.344-12.133-2.898-2.98-6.338-4.47-10.321-4.47-3.864 0-7.213 1.49-10.048 4.47-2.837 2.98-4.255 6.967-4.255 11.952V112.7c0 2.436-1.148 4.26-3.44 5.475-2.294 1.218-5.069 1.825-8.327 1.825-3.02 0-5.703-.639-8.057-1.917-2.353-1.273-3.53-3.07-3.53-5.383V69.277c0-4.867-1.48-8.818-4.436-11.86-2.96-3.041-6.427-4.562-10.41-4.562-3.865 0-7.182 1.461-9.958 4.38-2.777 2.922-4.165 6.935-4.165 12.042v43.24c0 1.827-1.176 3.532-3.53 5.112-2.353 1.58-5.1 2.371-8.238 2.371-3.258 0-6.005-.76-8.237-2.288C93.114 116.187 92 114.45 92 112.5M254.59 83.13c0 4.277 1.516 8.08 4.552 11.408 3.035 3.327 6.655 4.989 10.86 4.989 4.083 0 7.673-1.662 10.768-4.989 3.092-3.328 4.64-7.13 4.64-11.408V68.513c0-4.039-1.548-7.72-4.64-11.049-3.095-3.327-6.685-4.992-10.769-4.992-4.204 0-7.824 1.637-10.859 4.903-3.036 3.267-4.552 6.979-4.552 11.138V83.13zm-22.59.053V68.456c0-9.816 3.735-18.346 11.208-25.591 7.47-7.244 16.4-10.865 26.793-10.865 10.156 0 19.025 3.59 26.616 10.775C304.204 49.959 308 58.52 308 68.455v14.728c0 9.699-3.796 18.26-11.383 25.683-7.591 7.424-16.46 11.134-26.616 11.134-10.158 0-19.031-3.71-26.618-11.134C235.793 101.444 232 92.882 232 83.183zM342.59 83.13c0 4.277 1.516 8.08 4.554 11.408 3.035 3.327 6.654 4.989 10.856 4.989 4.086 0 7.676-1.662 10.77-4.989 3.092-3.328 4.64-7.13 4.64-11.408V68.513c0-4.039-1.548-7.72-4.64-11.049-3.094-3.327-6.684-4.992-10.77-4.992-4.202 0-7.821 1.637-10.856 4.903-3.038 3.267-4.554 6.979-4.554 11.138V83.13zm-22.59.053V68.456c0-9.816 3.735-18.346 11.208-25.591C338.678 35.621 347.609 32 358 32c10.158 0 19.028 3.59 26.617 10.775C392.206 49.959 396 58.52 396 68.455v14.728c0 9.699-3.794 18.26-11.383 25.683C377.028 116.29 368.158 120 358 120c-10.156 0-19.03-3.71-26.616-11.134C323.792 101.444 320 92.882 320 83.183zM456.333 115.86c-1.309 2.757-4.807 4.14-10.503 4.14-5.695 0-9.14-1.383-10.323-4.14L404.89 44.592c-.594-.837-.89-1.919-.89-3.24 0-2.518 1.75-4.797 5.252-6.838 3.498-2.039 6.852-3.059 10.056-3.059 3.44 0 5.697 1.32 6.764 3.958l19.758 52.191 33.045-83.436C479.905 1.388 482.02 0 485.23 0c2.746 0 5.894 1.016 9.446 3.04C498.224 5.066 500 7.294 500 9.724c0 1.043-.23 2.027-.687 2.952l-42.98 103.184"/>
    </g>
</svg>
